/* XPM */
static char *_3e5d3655aac4d6ed44a9c8bf5e6ecc52sN1yKrE43GhZztu[] = {
/* columns rows colors chars-per-pixel */
"16 16 2 1 ",
"  c None",
". c #395C98",
/* pixels */
"                ",
" . . . .. . . . ",
"                ",
" .            . ",
"                ",
" .            . ",
"                ",
" .     ..     . ",
" .     ..     . ",
"                ",
" .            . ",
"                ",
" .            . ",
"                ",
" . . . .. . . . ",
"                "
};
